<svg width="16" height="18" viewBox="0 0 16 18" fill="none" xmlns="http://www.w3.org/2000/svg">
<path d="M3.83333 4C3.83333 3.53976 4.20643 3.16667 4.66667 3.16667H8C8.46024 3.16667 8.83333 3.53976 8.83333 4C8.83333 4.46024 8.46024 4.83333 8 4.83333H4.66667C4.20643 4.83333 3.83333 4.46024 3.83333 4Z" fill="#FBFBFB"/>
<path fill-rule="evenodd" clip-rule="evenodd" d="M0.5 3.58333C0.5 1.74238 1.99238 0.25 3.83333 0.25H12.1667C14.0076 0.25 15.5 1.74238 15.5 3.58333V14.4167C15.5 16.2576 14.0076 17.75 12.1667 17.75H3.83333C1.99238 17.75 0.5 16.2576 0.5 14.4167V3.58333ZM3.83333 1.91667C2.91286 1.91667 2.16667 2.66286 2.16667 3.58333V6.08333H13.8333V3.58333C13.8333 2.66286 13.0871 1.91667 12.1667 1.91667H3.83333ZM13.8333 7.75H2.16667V14.4167C2.16667 15.3371 2.91286 16.0833 3.83333 16.0833H12.1667C13.0871 16.0833 13.8333 15.3371 13.8333 14.4167V7.75Z" fill="#FBFBFB"/>
</svg>
