<svg width="20" height="20" viewBox="0 0 20 20" fill="none" xmlns="http://www.w3.org/2000/svg">
<path d="M10 0.833069C12.0976 0.833069 14.0295 1.53935 15.5742 2.72467C15.7879 2.34193 16.1975 2.08307 16.667 2.08307C17.3572 2.08318 17.9168 2.6429 17.917 3.33307C17.917 3.80269 17.6573 4.21124 17.2744 4.42487C18.4602 5.96979 19.167 7.902 19.167 10.0001C19.167 12.0978 18.46 14.0295 17.2744 15.5743C17.6575 15.7878 17.917 16.1973 17.917 16.6671C17.9168 17.3572 17.3571 17.9169 16.667 17.9171C16.1972 17.9171 15.7878 17.6576 15.5742 17.2745C14.0294 18.46 12.0978 19.1671 10 19.1671C7.90195 19.167 5.96972 18.4603 4.4248 17.2745C4.21115 17.6573 3.80254 17.9171 3.33301 17.9171C2.64299 17.9168 2.08322 17.3571 2.08301 16.6671C2.08301 16.1977 2.34199 15.788 2.72461 15.5743C1.53929 14.0295 0.83301 12.0976 0.833008 10.0001C0.833008 7.90223 1.53901 5.96971 2.72461 4.42487C2.34219 4.2111 2.08301 3.80231 2.08301 3.33307C2.08315 2.64298 2.64295 2.08331 3.33301 2.08307C3.80227 2.08307 4.21105 2.34222 4.4248 2.72467C5.96964 1.53906 7.90216 0.833074 10 0.833069ZM2.56641 10.9805C3.014 14.4073 5.77206 17.1064 9.22754 17.46V14.9405C7.15461 14.619 5.50306 13.0242 5.09668 10.9805H2.56641ZM14.9033 10.9805C14.5049 12.9838 12.91 14.5539 10.8945 14.918V17.4444C14.2927 17.0404 16.9923 14.3669 17.4346 10.9805H14.9033ZM10 6.66705C8.15911 6.66712 6.66699 8.15915 6.66699 10.0001C6.66703 11.8409 8.15913 13.333 10 13.3331C11.8409 13.3331 13.333 11.841 13.333 10.0001C13.333 8.15911 11.8409 6.66705 10 6.66705ZM9.22754 2.53912C5.67373 2.90273 2.85685 5.74804 2.5332 9.31354H5.04785C5.3477 7.13015 7.05613 5.39541 9.22754 5.05865V2.53912ZM10.8945 5.08112C13.0076 5.46283 14.6579 7.17128 14.9521 9.31354H17.4668C17.1469 5.78904 14.3906 2.97034 10.8945 2.55475V5.08112Z" fill="#FBFBFB"/>
</svg>
