<svg width="70" height="70" viewBox="0 0 70 70" fill="none" xmlns="http://www.w3.org/2000/svg">
<mask id="mask0_14_4092" style="mask-type:alpha" maskUnits="userSpaceOnUse" x="0" y="0" width="70" height="70">
<path d="M66 0C68.2091 0 70 1.79086 70 4V60.7676C70 62.7529 68.5445 64.4557 66.5649 64.6065C65.3199 64.7013 64.0606 64.75 62.7891 64.75C37.7407 64.75 17.4346 46.1418 17.4346 23.1875C17.4346 20.0097 12.8711 17.7306 11.8771 20.749C10.4157 25.1861 9.625 29.9279 9.625 34.8545C9.62507 44.9815 12.9665 54.3271 18.6063 61.8512C20.8716 64.8733 18.8981 70 15.1212 70H4C1.79086 70 0 68.2091 0 66V4C0 1.79086 1.79086 0 4 0H66Z" fill="#535C74"/>
</mask>
<g mask="url(#mask0_14_4092)">
<g filter="url(#filter0_f_14_4092)">
<circle cx="21.4375" cy="3.93749" r="48.5625" fill="#F4E8C3" fill-opacity="0.7"/>
</g>
<g filter="url(#filter1_f_14_4092)">
<circle cx="58.1872" cy="69.8542" r="48.5625" fill="#CF6257" fill-opacity="0.7"/>
</g>
<g filter="url(#filter2_f_14_4092)">
<ellipse cx="18.0833" cy="60.6667" rx="39.0833" ry="34.125" fill="#C37196" fill-opacity="0.7"/>
</g>
<g filter="url(#filter3_f_14_4092)">
<ellipse cx="9.33334" cy="34.125" rx="39.0833" ry="34.125" fill="#D9A6B0" fill-opacity="0.7"/>
</g>
<g filter="url(#filter4_f_14_4092)">
<ellipse cx="73.7914" cy="15.1667" rx="34.1249" ry="34.125" fill="#5B4FED" fill-opacity="0.7"/>
</g>
<g filter="url(#filter5_f_14_4092)">
<rect width="18.4545" height="87.1813" transform="matrix(0.544636 -0.838673 0.838668 0.544643 -60.4541 58.1137)" fill="#D9D9D9" fill-opacity="0.6"/>
</g>
</g>
<defs>
<filter id="filter0_f_14_4092" x="-77.125" y="-94.625" width="197.125" height="197.125" filterUnits="userSpaceOnUse" color-interpolation-filters="sRGB">
<feFlood flood-opacity="0" result="BackgroundImageFix"/>
<feBlend mode="normal" in="SourceGraphic" in2="BackgroundImageFix" result="shape"/>
<feGaussianBlur stdDeviation="25" result="effect1_foregroundBlur_14_4092"/>
</filter>
<filter id="filter1_f_14_4092" x="-40.3752" y="-28.7083" width="197.125" height="197.125" filterUnits="userSpaceOnUse" color-interpolation-filters="sRGB">
<feFlood flood-opacity="0" result="BackgroundImageFix"/>
<feBlend mode="normal" in="SourceGraphic" in2="BackgroundImageFix" result="shape"/>
<feGaussianBlur stdDeviation="25" result="effect1_foregroundBlur_14_4092"/>
</filter>
<filter id="filter2_f_14_4092" x="-71" y="-23.4583" width="178.167" height="168.25" filterUnits="userSpaceOnUse" color-interpolation-filters="sRGB">
<feFlood flood-opacity="0" result="BackgroundImageFix"/>
<feBlend mode="normal" in="SourceGraphic" in2="BackgroundImageFix" result="shape"/>
<feGaussianBlur stdDeviation="25" result="effect1_foregroundBlur_14_4092"/>
</filter>
<filter id="filter3_f_14_4092" x="-79.75" y="-50" width="178.167" height="168.25" filterUnits="userSpaceOnUse" color-interpolation-filters="sRGB">
<feFlood flood-opacity="0" result="BackgroundImageFix"/>
<feBlend mode="normal" in="SourceGraphic" in2="BackgroundImageFix" result="shape"/>
<feGaussianBlur stdDeviation="25" result="effect1_foregroundBlur_14_4092"/>
</filter>
<filter id="filter4_f_14_4092" x="-10.3335" y="-68.9583" width="168.25" height="168.25" filterUnits="userSpaceOnUse" color-interpolation-filters="sRGB">
<feFlood flood-opacity="0" result="BackgroundImageFix"/>
<feBlend mode="normal" in="SourceGraphic" in2="BackgroundImageFix" result="shape"/>
<feGaussianBlur stdDeviation="25" result="effect1_foregroundBlur_14_4092"/>
</filter>
<filter id="filter5_f_14_4092" x="-104.054" y="-0.963585" width="170.367" height="150.16" filterUnits="userSpaceOnUse" color-interpolation-filters="sRGB">
<feFlood flood-opacity="0" result="BackgroundImageFix"/>
<feBlend mode="normal" in="SourceGraphic" in2="BackgroundImageFix" result="shape"/>
<feGaussianBlur stdDeviation="21.8" result="effect1_foregroundBlur_14_4092"/>
</filter>
</defs>
</svg>
